<svg version="1.1" viewBox="0 0 64 64" xmlns="http://www.w3.org/2000/svg"><title>tracking3.io</title><path d="m16 0h32c8.9 0 16 7.1 16 16v48h-48c-8.9 0-16-7.1-16-16v-32c0-8.9 7.1-16 16-16z" fill="#e5a550"/><rect fill="#dc4734" height="16" width="24" x="20" y="44"/><rect fill="#ffe14f" height="16" width="24" x="20" y="24"/><rect fill="#859900" height="16" width="24" x="20" y="4"/><g fill="black"><rect height="4" width="56" x="4" y="40"/><rect height="4" width="56" x="4" y="20"/><rect height="56" width="4" x="44" y="4"/><rect height="56" ry="0" width="4" x="16" y="4"/><rect height="4" width="16" x="24" y="8"/><rect height="4" width="16" x="24" y="48"/><rect height="4" width="16" x="24" y="28"/></g></svg>
